<svg style="background-color:white">

<script>
function y(evt) {
evt.target.setAttribute('style','fill:yellow')
}
function g(evt) {
evt.target.setAttribute('style','fill:rgb(200,200,200)')
}
</script>

<rect height="120" width="600" y="40"
style="fill:rgb(200,200,200)"
onmouseover="y(evt)"
onmouseout="g(evt)"
/>

<text x="90" y="30" style="font-size: 15pt; font-weight:bold">Program A</text>

<rect x="50" y="50" height="100" width="200" style="fill:white;stroke:black"/>
<text x="100" y="90" style="font-size: 15pt;" >A-specific</text>
<text x="80" y="120" style="font-size: 15pt;" >Representation</text>

<text x="390" y="30" style="font-size: 15pt; font-weight:bold">Program B</text>

<rect x="350" y="50" height="100" width="200" style="fill:white;stroke:black"/>
<text x="400" y="90" style="font-size: 15pt;" >B-specific</text>
<text x="380" y="120" style="font-size: 15pt;" >Representation</text>


<rect  height="120" width="600" y="190"
style="fill:rgb(200,200,200)"
onmouseover="y(evt)"
onmouseout="g(evt)"
/>
<rect x="50" y="200" height="100" width="200" style="fill:white;stroke:black"/>
<text x="105" y="240" style="font-size: 15pt;" >OpenMath</text>
<text x="120" y="270" style="font-size: 15pt;" >Object</text>


<rect x="350" y="200" height="100" width="200" style="fill:white;stroke:black"/>
<text x="405" y="240" style="font-size: 15pt;" >OpenMath</text>
<text x="420" y="270" style="font-size: 15pt;" >Object</text>


<line x1="255" y1="250"  x2="345" y2="250" style="stroke:black; " />
<path transform="translate(255 250)" d="M 0 0 L 5 5 5 -5 Z" style="fill:black"/>
<path transform="translate(345 250)rotate(180)" d="M 0 0 L 5 5 5 -5 Z" style="fill:black"/>

<rect  height="120" width="600" y="340"
style="fill:rgb(200,200,200)"
onmouseover="y(evt)"
onmouseout="g(evt)"
/>
<rect x="50" y="350" height="100" width="200" style="fill:white;stroke:black"/>
<text x="110" y="390" style="font-size: 15pt;" >Encoded</text>
<text x="120" y="420" style="font-size: 15pt;" >Object</text>


<rect x="350" y="350" height="100" width="200" style="fill:white;stroke:black"/>
<text x="410" y="390" style="font-size: 15pt;" >Encoded</text>
<text x="420" y="420" style="font-size: 15pt;" >Object</text>


<line x1="255" y1="400"  x2="345" y2="400" style="stroke:black; " />
<path transform="translate(255 400)" d="M 0 0 L 5 5 5 -5 Z" style="fill:black"/>
<path transform="translate(345 400)rotate(180)" d="M 0 0 L 5 5 5 -5 Z" style="fill:black"/>

<line x1="150" y1="155"  x2="150" y2="195" style="stroke:black; " />
<path transform="translate(150 155)rotate(90)" d="M 0 0 L 5 5 5 -5 Z" style="fill:black"/>
<path transform="translate(150 195)rotate(-90)" d="M 0 0 L 5 5 5 -5 Z" style="fill:black"/>

<line x1="450" y1="155"  x2="450" y2="195" style="stroke:black; " />
<path transform="translate(450 155)rotate(90)" d="M 0 0 L 5 5 5 -5 Z" style="fill:black"/>
<path transform="translate(450 195)rotate(-90)" d="M 0 0 L 5 5 5 -5 Z" style="fill:black"/>


<line x1="150" y1="305"  x2="150" y2="345" style="stroke:black; " />
<path transform="translate(150 305)rotate(90)" d="M 0 0 L 5 5 5 -5 Z" style="fill:black"/>
<path transform="translate(150 345)rotate(-90)" d="M 0 0 L 5 5 5 -5 Z" style="fill:black"/>

<line x1="450" y1="305"  x2="450" y2="345" style="stroke:black; " />
<path transform="translate(450 305)rotate(90)" d="M 0 0 L 5 5 5 -5 Z" style="fill:black"/>
<path transform="translate(450 345)rotate(-90)" d="M 0 0 L 5 5 5 -5 Z" style="fill:black"/>

<text x="30" y="180">Phrasebook A  /  CDs</text>
<text x="460" y="180">Phrasebook B  /  CDs</text>

<text x="70" y="330">OM Encoding</text>
<text x="460" y="330">OM Encoding</text>

<text transform="translate(600 462)rotate(-90)" style="font-style:italic; font-weight:bold;"
>communication layer</text>

<text transform="translate(600 310)rotate(-90)" style="font-style:italic; font-weight:bold;"
>abstract layer</text>
<text transform="translate(600 160)rotate(-90)" style="font-style:italic; font-weight:bold;"
>private layer</text>

<text x="283" y="242">Object</text>
<text x="280" y="265">Shortcut</text>

<text x="257" y="392">Transport Layer</text>
<text x="265" y="415">XML or Binary</text>

</svg>